<?xml version="1.0" encoding="utf-8"?>
<svg version="1.1"
    xmlns="http://www.w3.org/2000/svg"
    xmlns:xlink="http://www.w3.org/1999/xlink" x="0px" y="0px" viewBox="0 0 1000 1000" enable-background="new 0 0 1000 1000" xml:space="preserve">
    <g>
        <g transform="translate(0.000000,512.000000) scale(0.100000,-0.100000)">
            <path d="M4301.1,5002.5c-1183.6-74.7-2212-337.1-2786.6-710.5c-260.5-168.5-482.6-440.5-526.7-647.3c-7.7-36.4-15.3-1631.7-13.4-3543c0-3430.1,0-3477.9,38.3-3585.2c97.7-277.7,384.9-540.1,815.9-743.1c1264-601.4,3740.3-733.5,5496.5-293c921.2,229.8,1505.3,595.6,1662.4,1036.1c38.3,107.3,38.3,151.3,38.3,3604.4c0,3255.8-1.9,3500.9-32.6,3590.9c-237.5,687.5-1505.3,1177.8-3342,1292.7C5291.3,5025.5,4668.8,5025.5,4301.1,5002.5z M5555.5,4429.9c1003.6-55.5,1834.7-226,2388.2-488.4c656.9-310.3,672.2-582.2,53.6-881c-463.5-226-1126.1-392.6-1907.5-478.8c-377.3-42.1-1390.4-59.4-1807.9-30.6c-942.3,67-1731.3,241.3-2279,509.4c-595.6,289.2-601.4,555.4-15.3,850.3C2755.6,4295.8,4190,4504.6,5555.5,4429.9z M1665.9,2591.3c484.5-298.8,1514.9-540.1,2625.7-614.8c421.3-28.7,1415.3-11.5,1809.8,30.6c938.4,97.7,1817.5,327.5,2233.1,584.1c51.7,30.6,97.7,57.5,103.4,57.5s9.6-327.5,9.6-727.8c0-601.4-5.7-739.3-28.7-783.3c-136-266.2-873.3-566.9-1756.2-720.1c-1572.3-270-3426.2-130.2-4554.2,344.7c-260.5,109.2-465.4,254.7-528.6,375.4c-21.1,44-26.8,189.6-26.8,783.3c0,400.3,3.8,727.8,9.6,727.8C1568.2,2648.8,1614.2,2622,1665.9,2591.3z M2253.8,95.9C3328.2-262.3,4831.6-381,6233.5-222c808.2,90,1497.6,268.1,1991.8,513.3l222.1,111.1v-739.3v-737.3l-49.8-70.9c-191.5-277.7-965.2-566.9-1884.5-706.7c-859.9-130.2-1911.3-141.7-2834.4-26.8c-817.8,99.6-1551.3,325.6-1928.6,593.7c-206.8,147.5-197.3,97.7-197.3,949.9v737.4l216.4-109.2C1888,233.8,2106.3,145.7,2253.8,95.9z M2207.9-2137.2c1760-605.2,4667.2-513.3,6023.2,189.6l216.4,111.1v-743.1v-743.1l-63.2-84.3c-222.2-293-1103.1-595.6-2100.9-722c-683.7-88.1-1620.2-99.6-2298.2-30.6c-1135.7,114.9-2139.2,434.7-2374.8,758.4l-57.5,80.4v741.2v743.1l216.4-111.1C1886.1-2008.9,2085.3-2095.1,2207.9-2137.2z"/>
        </g>
    </g>
</svg>