<?xml version="1.0" encoding="utf-8"?>
<svg version="1.1"
    xmlns="http://www.w3.org/2000/svg"
    xmlns:xlink="http://www.w3.org/1999/xlink" x="0px" y="0px" viewBox="0 0 1000 1000" enable-background="new 0 0 1000 1000" xml:space="preserve">
    <g>
        <g transform="translate(0.000000,72.000000) scale(0.1,-0.1)">
            <path d="M378.4-549.3C122.3-794.3,100-905.7,100-1885.7v-1058h445.5h445.5v890.9v890.9H5000h4009.1V-4280v-3118.2H5000H990.9v890.9v890.9H545.5H100v-1058c0-980,22.3-1091.3,278.4-1336.4l267.3-278.4H5000h4354.3l267.3,278.4l278.4,267.3V-4280v3463.4l-278.4,267.3l-267.3,278.4H5000H645.7L378.4-549.3z"/>
            <path d="M4554.5-3144.1v-690.5H2327.3H100V-4280v-445.5h2227.3h2227.3v-690.5v-701.6l913.2,924.3l924.3,913.2l-924.3,913.2l-913.2,924.3V-3144.1z"/>
        </g>
    </g>
</svg>