<?xml version="1.0" encoding="utf-8"?>
<svg version="1.1"
    xmlns="http://www.w3.org/2000/svg"
    xmlns:xlink="http://www.w3.org/1999/xlink" x="0px" y="0px" viewBox="0 0 1000 1000" enable-background="new 0 0 1000 1000" xml:space="preserve">
    <metadata> Svg Vector Icons : http://www.onlinewebfonts.com/icon </metadata>
    <g>
        <path d="M10,353.1h71.8v602.3H10V353.1z"/>
        <path d="M918.2,376.5H990v578.6h-71.8V376.5z"/>
        <path d="M10,887.8h911.6v67.3H10V887.8z"/>
        <path d="M76.2,353h283.7v70.6H76.2V353L76.2,353z"/>
        <path d="M640.2,353H990v70.6H640.2V353z"/>
        <path d="M702,239.7L550.8,93.3l0,0l-50.4-48.8l-1.1,1.1l0,0L347,190.9l0,0.1L296,239.7l48.8,51.1L461.9,179v635.9h71.8V175.1l68.8,66.6l0,0l50.4,48.8L702,239.7z"/>
    </g>
</svg>