<?xml version="1.0" encoding="utf-8"?>
<svg version="1.1"
    xmlns="http://www.w3.org/2000/svg"
    xmlns:xlink="http://www.w3.org/1999/xlink" x="0px" y="0px" viewBox="0 0 1000 1000" enable-background="new 0 0 1000 1000" xml:space="preserve">
    <g>
        <g transform="translate(0.000000,511.000000) scale(0.100000,-0.100000)">
            <path d="M2532.6,2568.4C1194.9,1230.7,100,122.9,100,110c0-33.6,4860-4893.5,4893.5-4893.5c15.5,0,1123.3,1097.5,2466.1,2440.3L9900,97.1L7446.8,2550.3c-1348,1350.6-2458.4,2453.2-2466.1,2453.2C4972.9,5003.5,3872.8,3908.6,2532.6,2568.4z M7054.2,2168.1L9112.4,110L7046.5-1955.9L4980.6-4021.7l-2053,2053C1799.2-840.3,874.7,94.5,874.7,110c0,25.8,4080.1,4118.8,4105.9,4118.8C4988.4,4228.8,5920.6,3301.8,7054.2,2168.1z"/>
        </g>
    </g>
</svg>