<?xml version="1.0" encoding="utf-8"?>
<svg version="1.1"
    xmlns="http://www.w3.org/2000/svg"
    xmlns:xlink="http://www.w3.org/1999/xlink" x="0px" y="0px" viewBox="0 0 1000 1000" enable-background="new 0 0 1000 1000" xml:space="preserve">
    <g>
        <path d="M182.6,91.3C87.4,91.3,10,168.7,10,263.9v472.2c0,95.2,77.4,172.6,172.6,172.6h634.8c95.2,0,172.6-77.4,172.6-172.6V263.9c0-95.2-77.4-172.6-172.6-172.6H182.6z M182.6,145.8h634.8c65.9,0,118.2,52.2,118.2,118.1v472.2c0,65.9-52.2,118.2-118.2,118.2H182.6c-65.9,0-118.2-52.2-118.2-118.2V263.9C64.4,198,116.7,145.8,182.6,145.8z"/>
    </g>
</svg>