<?xml version="1.0" encoding="utf-8"?>
<!-- Svg Vector Icons : http://www.onlinewebfonts.com/icon -->
<!DOCTYPE svg PUBLIC "-//W3C//DTD SVG 1.1//EN" "http://www.w3.org/Graphics/SVG/1.1/DTD/svg11.dtd">
<svg version="1.1"
    xmlns="http://www.w3.org/2000/svg"
    xmlns:xlink="http://www.w3.org/1999/xlink" x="0px" y="0px" viewBox="0 0 1000 1000" enable-background="new 0 0 1000 1000" xml:space="preserve">
    <metadata> Svg Vector Icons : http://www.onlinewebfonts.com/icon </metadata>
    <g>
        <g transform="translate(0.000000,511.000000) scale(0.100000,-0.100000)">
            <path d="M4323.6,3212.5C3608.9,1969.6,2511.8,69.4,1041.8-2476.2C523.1-3372.6,100-4111.2,100-4118.3c0-9.6,2206.2-14.3,4900-14.3c2696.2,0,4900,4.8,4900,12c0,12-542.6,953.7-3688.1,6401.1C5554.5,3420.5,5007.2,4352.7,5000,4352.7C4990.4,4352.7,4686.9,3838.8,4323.6,3212.5z M5356.2,3007c320.3-559.3,800.7-1388.7,3045.2-5275.3l848.5-1470l-2124.9-7.2c-1168.8-2.4-3081-2.4-4249.9,0l-2124.9,7.2l683.6,1185.5c377.7,652.6,1331.4,2306.6,2120.2,3673.8C4342.7,2490.7,4992.8,3609.3,5000,3609.3S5167.3,3339.2,5356.2,3007z"/>
        </g>
    </g>
</svg>